<svg width="146" height="146" viewBox="0 0 146 146" fill="none" xmlns="http://www.w3.org/2000/svg">
<g clip-path="url(#clip0_466_140)">
<mask id="mask0_466_140" style="mask-type:luminance" maskUnits="userSpaceOnUse" x="0" y="0" width="146" height="146">
<path d="M146 0H0V146H146V0Z" fill="white"/>
</mask>
<g mask="url(#mask0_466_140)">
<path d="M146 0H0V146H146V0Z" fill="white"/>
<path d="M33.6611 210.754C27.3524 210.754 21.4043 209.402 15.8167 206.698C10.229 204.174 5.72286 200.389 2.29817 195.343C-1.12652 190.296 -2.83887 184.257 -2.83887 177.228C-2.83887 169.296 -0.58578 162.989 3.92039 158.302C8.60682 153.435 13.8339 149.83 19.6019 147.487C15.4561 145.144 12.0315 142.08 9.3278 138.294C6.80434 134.509 5.54261 130.093 5.54261 125.046C5.54261 118.017 8.06608 112.339 13.113 108.013C18.3402 103.507 24.2883 100.623 30.9574 99.3611C24.2883 95.2154 19.0611 89.9883 15.2759 83.6796C11.671 77.1907 9.86854 69.9809 9.86854 62.05C9.86854 51.7759 12.392 43.1241 17.4389 36.0944C22.6661 29.0648 30.0561 23.7476 39.6093 20.1426C49.3426 16.3574 60.7883 14.4648 73.9463 14.4648C79.1735 14.4648 84.0402 14.7352 88.5463 15.2759C93.2328 15.8167 97.4685 16.7179 101.254 17.9796C107.923 14.0142 112.429 9.68826 114.772 5.00185C117.296 0.135181 118.648 -3.74013 118.828 -6.62408H153.706C153.706 0.0450487 152.444 5.81295 149.92 10.6796C147.578 15.5463 144.152 19.6019 139.646 22.8463C135.14 25.9105 129.733 28.1635 123.424 29.6056C128.111 33.5709 131.715 38.3476 134.239 43.9352C136.763 49.5228 138.024 55.5611 138.024 62.05C138.024 72.1439 135.591 80.7957 130.724 88.0055C125.857 95.0352 118.918 100.443 109.906 104.228C101.074 108.013 90.4389 109.906 78.0019 109.906H56.3722C52.0463 109.906 48.8019 110.717 46.6389 112.339C44.4759 113.781 43.3945 115.944 43.3945 118.828C43.3945 121.171 44.2957 123.244 46.0982 125.046C48.0809 126.669 51.2352 127.48 55.5611 127.48H114.772C126.669 127.48 136.132 131.175 143.161 138.565C150.371 145.774 153.976 155.057 153.976 166.413C153.976 175.065 151.722 182.726 147.217 189.394C142.711 196.063 136.492 201.291 128.561 205.076C120.63 208.861 111.528 210.754 101.254 210.754H33.6611ZM49.3426 185.609H99.3611C102.606 185.609 105.489 184.978 108.013 183.717C110.536 182.635 112.519 181.013 113.961 178.85C115.403 176.867 116.124 174.524 116.124 171.82C116.124 167.133 114.682 163.619 111.798 161.276C108.914 158.933 105.309 157.761 100.983 157.761H49.3426C45.0167 157.761 41.4117 159.022 38.5278 161.546C35.8241 164.07 34.4722 167.404 34.4722 171.55C34.4722 175.696 35.8241 179.03 38.5278 181.554C41.4117 184.257 45.0167 185.609 49.3426 185.609ZM73.9463 85.5722C82.7784 85.5722 89.4476 83.5895 93.9537 79.6241C98.6402 75.4783 100.983 69.6204 100.983 62.05C100.983 54.4796 98.6402 48.7117 93.9537 44.7463C89.4476 40.6006 82.7784 38.5278 73.9463 38.5278C65.2945 38.5278 58.6254 40.6006 53.9389 44.7463C49.4328 48.7117 47.1796 54.4796 47.1796 62.05C47.1796 66.9167 48.171 71.1524 50.1537 74.7574C52.1365 78.3624 55.1106 81.0661 59.0759 82.8685C63.0413 84.6709 67.9982 85.5722 73.9463 85.5722Z" fill="url(#paint0_linear_466_140)"/>
<path d="M31.2278 210.754C24.9191 210.754 18.9709 209.402 13.3833 206.698C7.79569 204.174 3.28951 200.389 -0.13518 195.343C-3.55987 190.296 -5.27222 184.257 -5.27222 177.228C-5.27222 169.296 -3.01913 162.989 1.48704 158.302C6.17347 153.435 11.4006 149.83 17.1685 147.487C13.0228 145.144 9.59815 142.08 6.89445 138.294C4.37099 134.509 3.10926 130.093 3.10926 125.046C3.10926 118.017 5.63273 112.339 10.6796 108.013C15.9068 103.507 21.855 100.623 28.5241 99.3611C21.855 95.2154 16.6278 89.9883 12.8426 83.6796C9.23765 77.1907 7.43519 69.9809 7.43519 62.05C7.43519 51.7759 9.95865 43.1241 15.0056 36.0944C20.2328 29.0648 27.6228 23.7476 37.1759 20.1426C46.9093 16.3574 58.355 14.4648 71.513 14.4648C76.7402 14.4648 81.6068 14.7352 86.113 15.2759C90.7994 15.8167 95.0352 16.7179 98.8204 17.9796C105.489 14.0142 109.996 9.68826 112.339 5.00185C114.862 0.135181 116.214 -3.74013 116.394 -6.62408H151.272C151.272 0.0450487 150.011 5.81295 147.487 10.6796C145.144 15.5463 141.719 19.6019 137.213 22.8463C132.707 25.9105 127.299 28.1635 120.991 29.6056C125.677 33.5709 129.282 38.3476 131.806 43.9352C134.329 49.5228 135.591 55.5611 135.591 62.05C135.591 72.1439 133.157 80.7957 128.291 88.0055C123.424 95.0352 116.485 100.443 107.472 104.228C98.6402 108.013 88.0056 109.906 75.5685 109.906H53.9389C49.613 109.906 46.3685 110.717 44.2056 112.339C42.0426 113.781 40.9611 115.944 40.9611 118.828C40.9611 121.171 41.8624 123.244 43.6648 125.046C45.6476 126.669 48.8019 127.48 53.1278 127.48H112.339C124.235 127.48 133.698 131.175 140.728 138.565C147.937 145.774 151.543 155.057 151.543 166.413C151.543 175.065 149.289 182.726 144.783 189.394C140.278 196.063 134.059 201.291 126.128 205.076C118.197 208.861 109.094 210.754 98.8204 210.754H31.2278ZM46.9093 185.609H96.9278C100.172 185.609 103.056 184.978 105.58 183.717C108.103 182.635 110.086 181.013 111.528 178.85C112.97 176.867 113.691 174.524 113.691 171.82C113.691 167.133 112.249 163.619 109.365 161.276C106.481 158.933 102.876 157.761 98.55 157.761H46.9093C42.5833 157.761 38.9784 159.022 36.0944 161.546C33.3907 164.07 32.0389 167.404 32.0389 171.55C32.0389 175.696 33.3907 179.03 36.0944 181.554C38.9784 184.257 42.5833 185.609 46.9093 185.609ZM71.513 85.5722C80.345 85.5722 87.0142 83.5895 91.5204 79.6241C96.2068 75.4783 98.55 69.6204 98.55 62.05C98.55 54.4796 96.2068 48.7117 91.5204 44.7463C87.0142 40.6006 80.345 38.5278 71.513 38.5278C62.8611 38.5278 56.192 40.6006 51.5056 44.7463C46.9994 48.7117 44.7463 54.4796 44.7463 62.05C44.7463 66.9167 45.7376 71.1524 47.7204 74.7574C49.7031 78.3624 52.6772 81.0661 56.6426 82.8685C60.608 84.6709 65.5648 85.5722 71.513 85.5722Z" fill="black"/>
<g filter="url(#filter0_d_466_140)">
<path d="M24.2184 50.8432L25.7595 35.1752L12.7885 44.2934L6.75244 33.8909L21.1361 27.3412L6.75244 20.6631L12.7885 10.389L25.7595 19.5072L24.2184 3.83926H36.162L34.6209 19.3788L47.5919 10.389L53.6279 20.6631L39.2442 27.3412L53.6279 33.8909L47.5919 44.2934L34.6209 35.1752L36.162 50.8432H24.2184Z" fill="url(#paint1_linear_466_140)"/>
</g>
</g>
</g>
<defs>
<filter id="filter0_d_466_140" x="4.75244" y="3.83926" width="50.8755" height="51.0039" filterUnits="userSpaceOnUse" color-interpolation-filters="sRGB">
<feFlood flood-opacity="0" result="BackgroundImageFix"/>
<feColorMatrix in="SourceAlpha" type="matrix" values="0 0 0 0 0 0 0 0 0 0 0 0 0 0 0 0 0 0 127 0" result="hardAlpha"/>
<feOffset dy="2"/>
<feGaussianBlur stdDeviation="1"/>
<feComposite in2="hardAlpha" operator="out"/>
<feColorMatrix type="matrix" values="0 0 0 0 0 0 0 0 0 0 0 0 0 0 0 0 0 0 0.25 0"/>
<feBlend mode="normal" in2="BackgroundImageFix" result="effect1_dropShadow_466_140"/>
<feBlend mode="normal" in="SourceGraphic" in2="effect1_dropShadow_466_140" result="shape"/>
</filter>
<linearGradient id="paint0_linear_466_140" x1="141.742" y1="-5.54259" x2="40.6232" y2="140.457" gradientUnits="userSpaceOnUse">
<stop stop-color="#A7A8AD"/>
<stop offset="1" stop-color="#EAEAEA"/>
</linearGradient>
<linearGradient id="paint1_linear_466_140" x1="43.0564" y1="21.7648" x2="66.4435" y2="63.0639" gradientUnits="userSpaceOnUse">
<stop stop-color="#424CF9"/>
<stop offset="1" stop-color="#12006C"/>
</linearGradient>
<clipPath id="clip0_466_140">
<rect width="146" height="146" rx="10" fill="white"/>
</clipPath>
</defs>
</svg>
