<svg width="137" height="23" viewBox="0 0 137 23" fill="none" xmlns="http://www.w3.org/2000/svg">
<path d="M10.784 22.72C7.328 22.72 4.66133 21.8027 2.784 19.968C0.928 18.112 0 15.2427 0 11.36C0 8.77867 0.448 6.656 1.344 4.992C2.24 3.30667 3.54133 2.05867 5.248 1.248C6.95467 0.416 9.00267 0 11.392 0C12.8213 0 14.1653 0.16 15.424 0.48C16.6827 0.799999 17.792 1.29067 18.752 1.952C19.7333 2.61333 20.4907 3.44533 21.024 4.448C21.5787 5.42933 21.856 6.60267 21.856 7.968H17.024C17.024 7.30667 16.8747 6.72 16.576 6.208C16.2987 5.696 15.904 5.26933 15.392 4.928C14.88 4.58667 14.2933 4.33067 13.632 4.16C12.9707 3.98933 12.2773 3.904 11.552 3.904C10.4427 3.904 9.472 4.05333 8.64 4.352C7.808 4.62933 7.11467 5.06667 6.56 5.664C6.02667 6.24 5.62133 6.96533 5.344 7.84C5.06667 8.71467 4.928 9.728 4.928 10.88V11.84C4.928 13.44 5.16267 14.752 5.632 15.776C6.10133 16.8 6.80533 17.568 7.744 18.08C8.68267 18.5707 9.84533 18.816 11.232 18.816C12.384 18.816 13.3973 18.6453 14.272 18.304C15.168 17.9413 15.8613 17.4293 16.352 16.768C16.864 16.1067 17.12 15.296 17.12 14.336V14.112H10.56V10.464H21.856V22.336H18.72L18.304 19.968C17.664 20.5867 16.9707 21.0987 16.224 21.504C15.4987 21.9093 14.688 22.208 13.792 22.4C12.896 22.6133 11.8933 22.72 10.784 22.72Z" fill="#EDEFF6"/>
<path d="M33.7202 22.72C31.8642 22.72 30.3069 22.4107 29.0483 21.792C27.7896 21.152 26.8403 20.1813 26.2003 18.88C25.5603 17.5787 25.2402 15.9253 25.2402 13.92C25.2402 11.8933 25.5603 10.24 26.2003 8.96C26.8403 7.65867 27.7789 6.69867 29.0163 6.08C30.2749 5.44 31.8109 5.12 33.6242 5.12C35.3309 5.12 36.7709 5.42933 37.9443 6.048C39.1176 6.64533 40.0029 7.584 40.6003 8.864C41.1976 10.1227 41.4963 11.7547 41.4963 13.76V14.912H29.7523C29.7949 15.8933 29.9443 16.7253 30.2003 17.408C30.4776 18.0907 30.8936 18.6027 31.4482 18.944C32.0242 19.264 32.7816 19.424 33.7202 19.424C34.2322 19.424 34.6909 19.36 35.0962 19.232C35.5229 19.104 35.8856 18.912 36.1842 18.656C36.4829 18.4 36.7176 18.08 36.8882 17.696C37.0589 17.312 37.1443 16.8747 37.1443 16.384H41.4963C41.4963 17.4507 41.3043 18.3787 40.9202 19.168C40.5363 19.9573 40.0029 20.6187 39.3203 21.152C38.6376 21.664 37.8163 22.0587 36.8563 22.336C35.9176 22.592 34.8722 22.72 33.7202 22.72ZM29.8162 12.096H36.9202C36.9202 11.456 36.8349 10.9013 36.6642 10.432C36.5149 9.96267 36.3016 9.57867 36.0243 9.28C35.7469 8.98133 35.4056 8.768 35.0003 8.64C34.6163 8.49067 34.1789 8.416 33.6883 8.416C32.8776 8.416 32.1949 8.55467 31.6403 8.832C31.1069 9.088 30.6909 9.49333 30.3923 10.048C30.1149 10.5813 29.9229 11.264 29.8162 12.096Z" fill="#EDEFF6"/>
<path d="M44.7598 22.336V5.504H48.4398L48.7918 7.808H49.0158C49.3998 7.25333 49.8584 6.77333 50.3918 6.368C50.9464 5.96267 51.5651 5.65333 52.2477 5.44C52.9304 5.22667 53.6771 5.12 54.4878 5.12C55.5971 5.12 56.5677 5.32267 57.3997 5.728C58.2317 6.13333 58.8718 6.77333 59.3198 7.648C59.7891 8.52267 60.0238 9.664 60.0238 11.072V22.336H55.5757V11.776C55.5757 11.2427 55.5118 10.7947 55.3838 10.432C55.2558 10.048 55.0638 9.73867 54.8078 9.504C54.5731 9.248 54.2744 9.06667 53.9118 8.96C53.5491 8.85333 53.1438 8.8 52.6958 8.8C52.0344 8.8 51.4371 8.96 50.9038 9.28C50.3704 9.6 49.9544 10.0373 49.6558 10.592C49.3571 11.1467 49.2078 11.7867 49.2078 12.512V22.336H44.7598Z" fill="#EDEFF6"/>
<path d="M64.3937 22.336V0.383999H75.8177C77.3964 0.383999 78.7084 0.682666 79.7537 1.28C80.8204 1.856 81.6204 2.67733 82.1537 3.744C82.7084 4.78933 82.9857 6.03733 82.9857 7.488C82.9857 8.93867 82.6977 10.208 82.1217 11.296C81.5671 12.3627 80.7457 13.1947 79.6577 13.792C78.5697 14.3893 77.2364 14.688 75.6577 14.688H69.1617V22.336H64.3937ZM69.1617 10.784H75.0177C76.0204 10.784 76.7884 10.496 77.3217 9.92C77.8764 9.344 78.1537 8.544 78.1537 7.52C78.1537 6.816 78.0364 6.22933 77.8018 5.76C77.5671 5.29067 77.2151 4.928 76.7457 4.672C76.2977 4.416 75.7217 4.288 75.0177 4.288H69.1617V10.784Z" fill="#EDEFF6"/>
<path d="M89.864 22.72C89.3093 22.72 88.712 22.656 88.072 22.528C87.4533 22.4 86.8667 22.176 86.312 21.856C85.7573 21.5147 85.2987 21.0347 84.936 20.416C84.5947 19.776 84.424 18.9653 84.424 17.984C84.424 16.8107 84.68 15.84 85.192 15.072C85.704 14.304 86.4293 13.7067 87.368 13.28C88.328 12.832 89.4693 12.5227 90.792 12.352C92.1147 12.1813 93.576 12.096 95.176 12.096V10.848C95.176 10.3573 95.0907 9.93067 94.92 9.568C94.7707 9.20533 94.4933 8.91733 94.088 8.704C93.704 8.49067 93.16 8.384 92.456 8.384C91.752 8.384 91.176 8.46933 90.728 8.64C90.3013 8.81067 89.992 9.03467 89.8 9.312C89.6293 9.568 89.544 9.856 89.544 10.176V10.56H85.224C85.2027 10.4533 85.192 10.3573 85.192 10.272C85.192 10.1653 85.192 10.0373 85.192 9.888C85.192 8.90667 85.4907 8.064 86.088 7.36C86.6853 6.63467 87.528 6.08 88.616 5.696C89.704 5.312 90.9733 5.12 92.424 5.12C93.9813 5.12 95.2827 5.32267 96.328 5.728C97.3947 6.13333 98.2053 6.73067 98.76 7.52C99.336 8.30933 99.624 9.30133 99.624 10.496V18.144C99.624 18.528 99.7307 18.816 99.944 19.008C100.179 19.1787 100.435 19.264 100.712 19.264H101.768V22.176C101.555 22.2827 101.224 22.3893 100.776 22.496C100.328 22.624 99.784 22.688 99.144 22.688C98.5253 22.688 97.9707 22.592 97.48 22.4C97.0107 22.2293 96.616 21.984 96.296 21.664C95.976 21.3227 95.752 20.9173 95.624 20.448H95.4C95.0373 20.896 94.5893 21.2907 94.056 21.632C93.544 21.9733 92.936 22.24 92.232 22.432C91.5493 22.624 90.76 22.72 89.864 22.72ZM91.368 19.36C91.9653 19.36 92.4987 19.2747 92.968 19.104C93.4373 18.912 93.832 18.6667 94.152 18.368C94.472 18.048 94.7173 17.664 94.888 17.216C95.08 16.768 95.176 16.288 95.176 15.776V14.848C93.9813 14.848 92.9147 14.9333 91.976 15.104C91.0373 15.2533 90.2907 15.52 89.736 15.904C89.2027 16.288 88.936 16.8213 88.936 17.504C88.936 17.888 89.032 18.2187 89.224 18.496C89.416 18.7733 89.6933 18.9867 90.056 19.136C90.4187 19.2853 90.856 19.36 91.368 19.36Z" fill="#EDEFF6"/>
<path d="M110.794 22.72C109.621 22.72 108.565 22.592 107.626 22.336C106.688 22.08 105.888 21.728 105.226 21.28C104.565 20.8107 104.053 20.256 103.69 19.616C103.349 18.976 103.178 18.2507 103.178 17.44C103.178 17.3547 103.178 17.2693 103.178 17.184C103.178 17.0987 103.189 17.0347 103.21 16.992H107.498C107.498 17.0347 107.498 17.0773 107.498 17.12C107.498 17.1627 107.498 17.2053 107.498 17.248C107.52 17.7813 107.69 18.2187 108.01 18.56C108.33 18.88 108.746 19.1147 109.258 19.264C109.792 19.4133 110.347 19.488 110.923 19.488C111.435 19.488 111.925 19.4453 112.395 19.36C112.885 19.2533 113.29 19.072 113.61 18.816C113.952 18.56 114.122 18.2293 114.122 17.824C114.122 17.312 113.909 16.9173 113.482 16.64C113.077 16.3627 112.533 16.1387 111.85 15.968C111.189 15.7973 110.464 15.6053 109.674 15.392C108.949 15.2213 108.224 15.0293 107.498 14.816C106.773 14.5813 106.112 14.2827 105.514 13.92C104.938 13.5573 104.469 13.088 104.106 12.512C103.744 11.9147 103.562 11.168 103.562 10.272C103.562 9.39733 103.754 8.64 104.138 8C104.522 7.33867 105.045 6.79467 105.706 6.368C106.389 5.94133 107.178 5.632 108.074 5.44C108.992 5.22667 109.973 5.12 111.018 5.12C112 5.12 112.917 5.22667 113.77 5.44C114.624 5.632 115.37 5.93067 116.01 6.336C116.65 6.72 117.152 7.21067 117.514 7.808C117.877 8.384 118.058 9.03467 118.058 9.76C118.058 9.90933 118.058 10.048 118.058 10.176C118.058 10.304 118.048 10.3893 118.026 10.432H113.77V10.176C113.77 9.792 113.653 9.472 113.418 9.216C113.184 8.93867 112.843 8.72533 112.395 8.576C111.968 8.42667 111.445 8.352 110.826 8.352C110.4 8.352 110.005 8.384 109.642 8.448C109.301 8.512 109.002 8.608 108.746 8.736C108.49 8.864 108.288 9.024 108.138 9.216C108.01 9.38667 107.946 9.6 107.946 9.856C107.946 10.2187 108.096 10.5173 108.394 10.752C108.714 10.9653 109.13 11.1467 109.642 11.296C110.154 11.4453 110.72 11.6053 111.338 11.776C112.106 11.9893 112.906 12.2027 113.738 12.416C114.592 12.608 115.381 12.8747 116.106 13.216C116.832 13.5573 117.419 14.048 117.867 14.688C118.315 15.3067 118.538 16.1493 118.538 17.216C118.538 18.24 118.336 19.104 117.93 19.808C117.546 20.512 117.002 21.0773 116.299 21.504C115.594 21.9307 114.773 22.24 113.834 22.432C112.896 22.624 111.882 22.72 110.794 22.72Z" fill="#EDEFF6"/>
<path d="M128.576 22.72C127.402 22.72 126.346 22.592 125.408 22.336C124.469 22.08 123.669 21.728 123.008 21.28C122.346 20.8107 121.834 20.256 121.472 19.616C121.13 18.976 120.96 18.2507 120.96 17.44C120.96 17.3547 120.96 17.2693 120.96 17.184C120.96 17.0987 120.97 17.0347 120.992 16.992H125.28C125.28 17.0347 125.28 17.0773 125.28 17.12C125.28 17.1627 125.28 17.2053 125.28 17.248C125.301 17.7813 125.472 18.2187 125.792 18.56C126.112 18.88 126.528 19.1147 127.04 19.264C127.573 19.4133 128.128 19.488 128.704 19.488C129.216 19.488 129.706 19.4453 130.176 19.36C130.666 19.2533 131.072 19.072 131.392 18.816C131.733 18.56 131.904 18.2293 131.904 17.824C131.904 17.312 131.69 16.9173 131.264 16.64C130.858 16.3627 130.314 16.1387 129.632 15.968C128.97 15.7973 128.245 15.6053 127.456 15.392C126.73 15.2213 126.005 15.0293 125.28 14.816C124.554 14.5813 123.893 14.2827 123.296 13.92C122.72 13.5573 122.25 13.088 121.888 12.512C121.525 11.9147 121.344 11.168 121.344 10.272C121.344 9.39733 121.536 8.64 121.92 8C122.304 7.33867 122.826 6.79467 123.488 6.368C124.17 5.94133 124.96 5.632 125.856 5.44C126.773 5.22667 127.754 5.12 128.8 5.12C129.781 5.12 130.698 5.22667 131.552 5.44C132.405 5.632 133.152 5.93067 133.792 6.336C134.432 6.72 134.933 7.21067 135.296 7.808C135.658 8.384 135.84 9.03467 135.84 9.76C135.84 9.90933 135.84 10.048 135.84 10.176C135.84 10.304 135.829 10.3893 135.808 10.432H131.552V10.176C131.552 9.792 131.434 9.472 131.2 9.216C130.965 8.93867 130.624 8.72533 130.176 8.576C129.749 8.42667 129.226 8.352 128.608 8.352C128.181 8.352 127.786 8.384 127.424 8.448C127.082 8.512 126.784 8.608 126.528 8.736C126.272 8.864 126.069 9.024 125.92 9.216C125.792 9.38667 125.728 9.6 125.728 9.856C125.728 10.2187 125.877 10.5173 126.176 10.752C126.496 10.9653 126.912 11.1467 127.424 11.296C127.936 11.4453 128.501 11.6053 129.12 11.776C129.888 11.9893 130.688 12.2027 131.52 12.416C132.373 12.608 133.162 12.8747 133.888 13.216C134.613 13.5573 135.2 14.048 135.648 14.688C136.096 15.3067 136.32 16.1493 136.32 17.216C136.32 18.24 136.117 19.104 135.712 19.808C135.328 20.512 134.784 21.0773 134.08 21.504C133.376 21.9307 132.554 22.24 131.616 22.432C130.677 22.624 129.664 22.72 128.576 22.72Z" fill="#EDEFF6"/>
</svg>
